<svg xmlns="http://www.w3.org/2000/svg" width="24" height="24" viewBox="0 0 24 24" fill="currentColor" role="img" aria-labelledby="amex-title">
  <title id="amex-title">American Express</title>
  <path d="M21.1 3H2.9C2.4 3 2 3.4 2 3.9v16.2c0 .5.4.9.9.9h18.2c.5 0 .9-.4.9-.9V3.9c0-.5-.4-.9-.9-.9zM9.4 16.5H6.8l-.8-2.4h-2v2.4H2.5V7.5h4.2c2.1 0 3.5 1.1 3.5 3.1 0 1.4-.7 2.4-1.8 2.8l2 3.1zm-4.3-4.5h1.7c.9 0 1.5-.4 1.5-1.2s-.6-1.1-1.5-1.1H5.1v2.3zm16.4 4.5h-4.2l-2.4-3.7-2.4 3.7h-4.2L13.1 12 8.3 7.5h4.2l2.4 3.7 2.4-3.7h4.2L18.4 12l2.5 4.5z"/>
</svg>
