<svg xmlns="http://www.w3.org/2000/svg" width="24" height="24" viewBox="0 0 24 24" fill="currentColor" role="img" aria-labelledby="mastercard-title">
  <title id="mastercard-title">Mastercard</title>
  <path d="M12 6.1c-3.2 0-6.1 1.5-8.1 4a9.2 9.2 0 0 0-.2 9.8c2 2.5 5 4 8.2 4s6.2-1.5 8.2-4a9.2 9.2 0 0 0-.1-9.8c-2-2.5-5-4-8.1-4zm4.4 7.2c-.3 1-.8 1.9-1.5 2.6-.5.5-1.1.9-1.8 1.2h2.5c.4 0 .8.2 1 .5.3.3.4.7.4 1.1 0 .4-.2.8-.5 1-.3.3-.7.5-1.1.5h-7c-.4 0-.8-.2-1-.5-.3-.3-.5-.7-.5-1.1 0-.4.2-.8.5-1.1.3-.2.6-.4 1-.4h.2c2.4 0 4.6-1.1 6-2.9.2-.3.3-.6.4-.9h-5.2c-.4 0-.8-.2-1-.5-.3-.3-.5-.7-.5-1.1 0-.4.2-.8.5-1.1.3-.2.6-.4 1-.4h6.2c.2 0 .4.2.5.4.1.3.2.6.2.9z"/>
  <path d="M12 2.2C6.6 2.2 2.2 6.6 2.2 12c0 5.4 4.4 9.8 9.8 9.8s9.8-4.4 9.8-9.8c0-5.4-4.4-9.8-9.8-9.8zm0 18c-4.5 0-8.2-3.7-8.2-8.2S7.5 3.8 12 3.8s8.2 3.7 8.2 8.2-3.7 8.2-8.2 8.2z"/>
</svg>
